<svg id="Capa_1" enable-background="new 0 0 512 512" height="512" viewBox="0 0 512 512" width="512" xmlns="http://www.w3.org/2000/svg"><g><path d="m430.961 142.722h-419.527v235.052c0 33.309 27.002 60.31 60.31 60.31h298.907c33.309 0 60.31-27.002 60.31-60.31z" fill="#fbf1cf"/><path d="m11.434 142.722h419.528v30h-419.528z" fill="#fae0bd"/><path d="m371.278 215.923c-87.832 0-159.288 71.457-159.288 159.289 0 22.318 4.622 43.573 12.945 62.873h145.716c33.308 0 60.31-27.002 60.31-60.31v-150.239c-18.442-7.481-38.588-11.613-59.683-11.613z" fill="#fae0bd"/><path d="m240.158 189.514h-37.922c-10.916 0-19.766 8.85-19.766 19.766v37.922c0 10.916 8.85 19.766 19.766 19.766h37.922c10.917 0 19.766-8.85 19.766-19.766v-37.922c0-10.917-8.849-19.766-19.766-19.766z" fill="#cde9fa"/><g fill="#b0ade2"><path d="m115.913 189.514h-37.922c-10.916 0-19.766 8.85-19.766 19.766v37.922c0 10.916 8.85 19.766 19.766 19.766h37.922c10.916 0 19.766-8.85 19.766-19.766v-37.922c0-10.917-8.85-19.766-19.766-19.766z"/><path d="m326.482 189.514h37.922c10.916 0 19.766 8.85 19.766 19.766v37.922c0 10.916-8.85 19.766-19.766 19.766h-37.922c-10.917 0-19.766-8.85-19.766-19.766v-37.922c0-10.917 8.849-19.766 19.766-19.766z"/><path d="m240.158 391.213h-37.922c-10.916 0-19.766-8.849-19.766-19.766v-37.922c0-10.916 8.85-19.766 19.766-19.766h37.922c10.917 0 19.766 8.85 19.766 19.766v37.922c0 10.917-8.849 19.766-19.766 19.766z"/></g><path d="m115.913 391.213h-37.922c-10.916 0-19.766-8.849-19.766-19.766v-37.922c0-10.916 8.85-19.766 19.766-19.766h37.922c10.916 0 19.766 8.85 19.766 19.766v37.922c0 10.917-8.85 19.766-19.766 19.766z" fill="#cde9fa"/><g><path d="m371.278 215.923c-22.971 0-44.817 4.896-64.563 13.685v17.593c0 10.916 8.849 19.766 19.766 19.766h37.922c10.917 0 19.766-8.85 19.766-19.766v-30.755c-4.252-.341-8.551-.523-12.891-.523z" fill="#a09cdc"/><path d="m240.158 313.759h-15.831c-7.941 18.92-12.337 39.682-12.337 61.453 0 5.4.273 10.738.801 16.001h27.368c10.917 0 19.766-8.849 19.766-19.766v-37.922c-.001-10.916-8.85-19.766-19.767-19.766z" fill="#a09cdc"/><ellipse cx="371.278" cy="375.212" fill="#88d37f" rx="129.288" ry="129.288" transform="matrix(.707 -.707 .707 .707 -156.57 372.43)"/><path d="m463.613 465.697c-172.727-3.564-178.43-158.509-145.741-208.259-44.757 20.328-75.882 65.415-75.882 117.774 0 71.404 57.884 129.288 129.288 129.288 36.173 0 68.869-14.861 92.335-38.803z" fill="#5ec682"/><ellipse cx="371.278" cy="375.212" fill="#fbf1cf" rx="90.555" ry="90.555" transform="matrix(.707 -.707 .707 .707 -156.57 372.43)"/><path d="m302.301 316.547c-13.454 15.803-21.577 36.284-21.577 58.664 0 50.012 40.543 90.555 90.555 90.555 12.962 0 25.285-2.729 36.434-7.635-81.049-22.158-106.688-88.292-105.412-141.584z" fill="#fae0bd"/></g><path d="m430.961 142.722h-419.527v-59.553c0-23.069 18.701-41.77 41.77-41.77h335.989c23.069 0 41.77 18.701 41.77 41.77v59.553z" fill="#e7889d"/><path d="m99.482 7.5c-13.847 0-25.072 11.225-25.072 25.072v34.418c0 13.847 11.225 25.072 25.072 25.072 13.847 0 25.072-11.225 25.072-25.072v-34.418c-.001-13.847-11.226-25.072-25.072-25.072z" fill="#59636f"/><path d="m221.197 7.5c-13.847 0-25.072 11.225-25.072 25.072v34.418c0 13.847 11.225 25.072 25.072 25.072 13.847 0 25.072-11.225 25.072-25.072v-34.418c0-13.847-11.225-25.072-25.072-25.072z" fill="#59636f"/><path d="m342.913 7.5c-13.847 0-25.072 11.225-25.072 25.072v34.418c0 13.847 11.225 25.072 25.072 25.072 13.847 0 25.072-11.225 25.072-25.072v-34.418c0-13.847-11.225-25.072-25.072-25.072z" fill="#59636f"/><path d="m371.278 277.157c-54.067 0-98.055 43.987-98.055 98.055s43.987 98.055 98.055 98.055 98.055-43.987 98.055-98.055-43.987-98.055-98.055-98.055zm0 181.11c-45.797 0-83.055-37.258-83.055-83.055s37.258-83.055 83.055-83.055 83.055 37.258 83.055 83.055-37.258 83.055-83.055 83.055zm-293.287-183.799h37.922c15.034 0 27.266-12.232 27.266-27.266v-37.922c0-15.035-12.231-27.266-27.266-27.266h-37.922c-15.035 0-27.267 12.231-27.267 27.266v37.922c.001 15.034 12.232 27.266 27.267 27.266zm-12.266-65.188c0-6.764 5.503-12.266 12.267-12.266h37.922c6.764 0 12.266 5.502 12.266 12.266v37.922c0 6.764-5.502 12.266-12.266 12.266h-37.923c-6.764 0-12.267-5.503-12.267-12.266v-37.922zm12.266 189.433h37.922c15.034 0 27.266-12.232 27.266-27.266v-37.922c0-15.035-12.231-27.266-27.266-27.266h-37.922c-15.035 0-27.267 12.231-27.267 27.266v37.922c.001 15.035 12.232 27.266 27.267 27.266zm-12.266-65.188c0-6.764 5.503-12.266 12.267-12.266h37.922c6.764 0 12.266 5.502 12.266 12.266v37.922c0 6.764-5.502 12.266-12.266 12.266h-37.923c-6.764 0-12.267-5.503-12.267-12.266v-37.922zm136.511-59.057h37.922c15.035 0 27.267-12.232 27.267-27.266v-37.922c0-15.035-12.231-27.266-27.267-27.266h-37.922c-15.035 0-27.267 12.231-27.267 27.266v37.922c.001 15.034 12.232 27.266 27.267 27.266zm-12.266-65.188c0-6.764 5.503-12.266 12.267-12.266h37.922c6.764 0 12.267 5.502 12.267 12.266v37.922c0 6.764-5.503 12.266-12.267 12.266h-37.922c-6.764 0-12.267-5.503-12.267-12.266zm210.658 158.432h-26.243l-29.595-29.595c-2.93-2.929-7.678-2.929-10.607 0s-2.929 7.678 0 10.606l31.792 31.792c1.407 1.407 3.314 2.197 5.304 2.197h29.35c4.143 0 7.5-3.358 7.5-7.5-.001-4.142-3.358-7.5-7.501-7.5zm37.833-111.616v-172.927c0-27.167-22.103-49.27-49.27-49.27h-13.707v-1.328c0-17.959-14.611-32.571-32.571-32.571s-32.572 14.612-32.572 32.572v1.328h-56.572v-1.328c0-17.96-14.612-32.572-32.572-32.572s-32.571 14.612-32.571 32.572v1.328h-56.572v-1.328c0-17.96-14.613-32.572-32.573-32.572s-32.571 14.612-32.571 32.572v1.328h-13.707c-18.082 0-34.681 9.878-43.319 25.779-1.977 3.64-.629 8.193 3.011 10.17 3.627 1.971 8.187.641 10.171-3.01 6.01-11.065 17.558-17.939 30.137-17.939h13.707v18.089c0 17.96 14.611 32.572 32.571 32.572s32.572-14.612 32.572-32.572v-18.089h56.572v18.089c0 17.96 14.611 32.572 32.571 32.572s32.571-14.612 32.571-32.572v-18.089h56.572v18.089c0 17.96 14.612 32.572 32.572 32.572s32.571-14.612 32.571-32.572v-18.089h13.707c18.896 0 34.27 15.373 34.27 34.27v52.053h-404.525v-37.807c0-4.142-3.357-7.5-7.5-7.5s-7.5 3.358-7.5 7.5v280.358c0 37.391 30.42 67.811 67.811 67.811h182.28c23.953 39.762 67.547 66.415 117.253 66.415 28.903 0 56.536-8.906 79.91-25.756 3.36-2.422 4.12-7.11 1.698-10.47-2.421-3.36-7.11-4.119-10.47-1.698-20.804 14.997-45.402 22.924-71.138 22.924-67.154 0-121.788-54.634-121.788-121.788s54.634-121.789 121.788-121.789 121.788 54.634 121.788 121.789c0 28.006-9.24 54.332-26.723 76.132-2.592 3.232-2.073 7.952 1.158 10.543 3.232 2.591 7.951 2.073 10.543-1.159 19.359-24.141 30.022-54.511 30.022-85.517 0-51.023-28.086-95.605-69.605-119.115zm-321.407-189.107c0 9.689-7.883 17.572-17.572 17.572-9.688 0-17.571-7.883-17.571-17.572v-34.417c-.001-9.689 7.882-17.572 17.57-17.572 9.689 0 17.572 7.883 17.572 17.572v34.417zm121.715 0c0 9.689-7.883 17.572-17.571 17.572s-17.571-7.883-17.571-17.572v-34.417c0-9.689 7.883-17.572 17.571-17.572s17.571 7.883 17.571 17.572zm121.715 0c0 9.689-7.883 17.572-17.571 17.572-9.689 0-17.572-7.883-17.572-17.572v-34.417c0-9.689 7.883-17.572 17.572-17.572s17.571 7.883 17.571 17.572zm16.186 171.55c-21.641-.844-42.683 3.352-61.941 12.13-.911-3.052-.336-1.57-.513-41.39 0-6.763 5.502-12.266 12.266-12.266h37.922c6.764 0 12.267 5.502 12.267 12.266v29.26zm46.791 10.237c-10.054-4.165-20.706-7.168-31.791-8.832v-30.665c0-15.034-12.231-27.266-27.267-27.266h-37.922c-15.034 0-27.266 12.231-27.266 27.266v37.922c0 3.638.735 7.2 2.12 10.501-20.694 12.364-37.862 30.035-49.618 51.123-3.568-1.677-7.488-2.567-11.559-2.567h-37.922c-15.035 0-27.267 12.231-27.267 27.266v37.922c0 15.035 12.232 27.266 27.267 27.266h34.281c1.937 11.141 5.228 21.823 9.694 31.872h-174.467c-29.12 0-52.811-23.691-52.811-52.811v-227.551h404.527v98.554zm-188.699 134.937h-32.526c-6.764 0-12.267-5.503-12.267-12.266v-37.922c0-6.764 5.503-12.266 12.267-12.266h37.922c1.746 0 3.429.371 4.975 1.062-7.898 18.767-11.714 39.597-10.371 61.392z"/></g></svg>