<svg id="Capa_1" enable-background="new 0 0 512.011 512.011" height="512" viewBox="0 0 512.011 512.011" width="512" xmlns="http://www.w3.org/2000/svg"><g><path d="m378.364 412.884v-364.317c0-22.681-18.386-41.067-41.067-41.067h-268.692c-22.68 0-41.067 18.386-41.067 41.067v364.317c0 22.681 18.386 41.067 41.067 41.067h268.692c22.681 0 41.067-18.386 41.067-41.067z" fill="#fbf1cf"/><path d="m337.298 453.951c22.681 0 41.067-18.386 41.067-41.067v-109.612l-112.922 112.921c-9.707 9.707-16.872 21.802-20.719 34.977l-.813 2.781z" fill="#fae0bd"/><path d="m476.948 341.064-143.317 143.317c-6.171 6.171-13.798 10.689-22.175 13.136l-21.293 6.22c-13.975 4.082-26.945-8.887-22.862-22.862l6.22-21.293c2.447-8.378 6.965-16.004 13.136-22.175l143.317-143.317c10.052-10.052 26.351-10.052 36.403 0l10.571 10.571c10.053 10.052 10.053 26.35 0 36.403z" fill="#b0ade2"/><path d="m347.078 376.985-60.422 60.422c-6.171 6.171-10.689 13.798-13.136 22.175l-6.22 21.293c-4.082 13.975 8.887 26.945 22.862 22.862l21.293-6.22c8.378-2.447 16.004-6.965 22.175-13.136l31.999-31.999c-19.922-18.24-22.85-49.903-18.551-75.397z" fill="#a09cdc"/><path d="m321.516 493.367-43.846-43.846c-1.719 3.191-3.126 6.555-4.15 10.061l-6.22 21.293c-4.082 13.975 8.887 26.945 22.862 22.862l21.293-6.22c3.507-1.024 6.87-2.431 10.061-4.15z" fill="#59636f"/><path d="m453.383 364.629 23.565-23.565c10.052-10.052 10.052-26.351 0-36.403l-10.571-10.571c-10.052-10.052-26.351-10.052-36.403 0l-23.565 23.565z" fill="#e7889d"/><path d="m395.369 322.227h40.451v66.432h-40.451z" fill="#59636f" transform="matrix(-.707 .707 -.707 -.707 960.8 312.911)"/><path d="m279.121 99.452h-152.338c-10.995 0-19.908-8.913-19.908-19.908v-17.328c0-10.995 8.913-19.908 19.908-19.908h152.338c10.995 0 19.908 8.913 19.908 19.908v17.327c0 10.995-8.913 19.909-19.908 19.909z" fill="#a2ddfd"/><path d="m306.529 79.543v-17.327c0-15.113-12.295-27.409-27.408-27.409h-152.338c-15.113 0-27.408 12.295-27.408 27.409v17.327c0 15.113 12.295 27.409 27.408 27.409h152.338c15.112 0 27.408-12.296 27.408-27.409zm-192.155 0v-17.327c0-6.842 5.566-12.409 12.408-12.409h152.338c6.842 0 12.408 5.566 12.408 12.409v17.327c0 6.842-5.566 12.409-12.408 12.409h-152.337c-6.842 0-12.409-5.567-12.409-12.409zm198.885 270.469h-121.859c-4.142 0-7.5 3.358-7.5 7.5s3.358 7.5 7.5 7.5h121.859c4.142 0 7.5-3.358 7.5-7.5s-3.358-7.5-7.5-7.5zm-244.654-335.012h268.692c15.291 0 28.651 10.32 32.491 25.096 1.042 4.009 5.137 6.416 9.145 5.373 4.009-1.042 6.415-5.136 5.373-9.145-5.557-21.388-24.887-36.324-47.008-36.324h-268.693c-26.78 0-48.566 21.787-48.566 48.567v364.317c0 21.362 13.688 39.993 34.061 46.362 3.979 1.244 8.168-.992 9.396-4.92 1.236-3.954-.967-8.16-4.92-9.396-14.078-4.401-23.537-17.279-23.537-32.045v-364.318c0-18.509 15.058-33.567 33.566-33.567zm244.654 240.214h-121.859c-4.142 0-7.5 3.358-7.5 7.5s3.358 7.5 7.5 7.5h121.859c4.142 0 7.5-3.358 7.5-7.5s-3.358-7.5-7.5-7.5zm-235.115 7.5c0 18.12 14.742 32.861 32.862 32.861s32.861-14.742 32.861-32.861c0-18.12-14.742-32.862-32.861-32.862-18.12.001-32.862 14.742-32.862 32.862zm50.724 0c0 9.849-8.013 17.861-17.861 17.861-9.849 0-17.862-8.013-17.862-17.861 0-9.849 8.013-17.862 17.862-17.862 9.848.001 17.861 8.013 17.861 17.862zm235.476 133.373-23.452 23.451c-2.929 2.929-2.929 7.678 0 10.606 1.464 1.465 3.384 2.197 5.303 2.197s3.839-.732 5.303-2.197l23.452-23.451c2.929-2.929 2.929-7.678 0-10.607-2.928-2.928-7.677-2.928-10.606.001zm-253.338-5.713c18.12 0 32.861-14.742 32.861-32.862s-14.742-32.861-32.861-32.861c-18.12 0-32.862 14.742-32.862 32.861 0 18.12 14.742 32.862 32.862 32.862zm0-50.724c9.849 0 17.861 8.013 17.861 17.861 0 9.849-8.013 17.862-17.861 17.862-9.849 0-17.862-8.013-17.862-17.862 0-9.848 8.013-17.861 17.862-17.861zm371.245-40.293-10.571-10.571c-12.989-12.99-34.018-12.993-47.01 0l-38.806 38.806v-253.932c0-4.142-3.358-7.5-7.5-7.5s-7.5 3.358-7.5 7.5v268.933l-89.511 89.511c-3.887 3.887-7.629 8.813-10.545 14.348h-179.421c-4.142 0-7.5 3.358-7.5 7.5s3.358 7.5 7.5 7.5h173.774l-5.06 17.321c-5.04 17.253 8.32 33.239 24.741 33.239 6.167 0 8.521-1.684 28.717-7.294 9.12-2.664 18.204-7.861 25.375-15.032l143.317-143.317c12.961-12.963 12.961-34.051 0-47.012zm-194.191 197.181c-8.299 2.425-15.984-5.264-13.56-13.56l5.883-20.138 27.815 27.816zm34.563-12.67-35.454-35.454c4.109-5.789.054-.636 90.636-91.55l36.368 36.368c-91.222 90.89-85.798 86.554-91.55 90.636zm102.157-101.242-36.368-36.368 17.997-17.997 36.368 36.368zm46.865-46.866-18.262 18.262-36.368-36.368 18.262-18.262c7.129-7.129 18.667-7.13 25.797 0l10.571 10.571c7.112 7.113 7.112 18.685 0 25.797zm-368.597-146.952 44.142-44.143c2.929-2.929 2.929-7.678 0-10.606-2.929-2.929-7.678-2.929-10.606 0l-38.839 38.839-12.317-12.317c-2.929-2.929-7.678-2.929-10.606 0-2.929 2.929-2.929 7.678 0 10.606l17.62 17.62c2.926 2.928 7.678 2.93 10.606.001zm210.211-28.391h-121.859c-4.142 0-7.5 3.358-7.5 7.5s3.358 7.5 7.5 7.5h121.859c4.142 0 7.5-3.358 7.5-7.5 0-4.143-3.358-7.5-7.5-7.5z"/></g></svg>