<svg height="512pt" viewBox="0 -64 512.00057 512" width="512pt" xmlns="http://www.w3.org/2000/svg"><path d="m137.058594 177.882812 13.722656 28.535157c4.296875 8.933593 12.71875 15.183593 22.515625 16.710937l31.285156 4.871094c18.785157 2.925781 26.058594 26.121094 12.3125 39.25l-22.898437 21.871094c-7.167969 6.847656-10.511719 16.785156-8.933594 26.574218l5.035156 31.257813c3.023438 18.769531-16.789062 32.859375-33.527344 23.839844l-27.871093-15.015625c-8.730469-4.703125-19.214844-4.8125-28.039063-.285156l-28.171875 14.445312c-16.917969 8.675781-36.4375-5.8125-33.035156-24.515625l5.671875-31.152344c1.773438-9.753906-1.363281-19.757812-8.394531-26.75l-22.445313-22.332031c-13.480468-13.40625-5.730468-36.449219 13.109375-38.992188l31.378907-4.234374c9.824218-1.324219 18.371093-7.402344 22.847656-16.246094l14.300781-28.25c8.589844-16.960938 32.898437-16.714844 41.136719.417968zm0 0" fill="#f4e74d"/><path d="m204.582031 228-31.285156-4.871094c-9.796875-1.527344-18.21875-7.777344-22.515625-16.710937l-13.722656-28.535157c-8.238282-17.132812-32.546875-17.378906-41.136719-.417968l-12.03125 23.765625c4.746094 7.507812 11.109375 16.5 19.175781 25.6875 12.714844 14.480469 18.277344 33.847656 15.296875 52.886719-3.011719 19.230468-4.574219 45.371093 1.503907 72.863281 3.046874.5625 6.03125 1.597656 8.832031 3.109375l27.875 15.015625c16.734375 9.019531 36.546875-5.070313 33.523437-23.839844l-5.035156-31.257813c-1.574219-9.789062 1.765625-19.726562 8.9375-26.574218l22.894531-21.871094c13.746094-13.128906 6.472657-36.324219-12.3125-39.25zm0 0" fill="#eedb00"/><path d="m417.546875 181.125 13.722656 28.53125c4.300781 8.9375 12.71875 15.1875 22.515625 16.710938l31.285156 4.875c18.785157 2.921874 26.0625 26.117187 12.3125 39.25l-22.894531 21.867187c-7.171875 6.847656-10.511719 16.785156-8.9375 26.578125l5.035157 31.257812c3.023437 18.769532-16.789063 32.855469-33.523438 23.839844l-27.875-15.019531c-8.730469-4.703125-19.214844-4.808594-28.035156-.285156l-28.175782 14.449219c-16.917968 8.675781-36.4375-5.8125-33.03125-24.515626l5.667969-31.152343c1.777344-9.753907-1.363281-19.757813-8.394531-26.753907l-22.445312-22.328124c-13.476563-13.410157-5.730469-36.449219 13.109374-38.992188l31.378907-4.234375c9.828125-1.324219 18.371093-7.402344 22.851562-16.25l14.300781-28.246094c8.585938-16.960937 32.894532-16.714843 41.132813.417969zm0 0" fill="#f4e74d"/><path d="m429.003906 204.941406-11.457031-23.816406c-8.238281-17.132812-32.546875-17.378906-41.132813-.417969l-14.300781 28.246094c-4.480469 8.847656-13.023437 14.921875-22.851562 16.25l-31.378907 4.234375c-18.839843 2.539062-26.585937 25.582031-13.109374 38.992188l22.449218 22.328124c7.027344 6.992188 10.167969 17 8.390625 26.753907l-5.667969 31.148437c-3.40625 18.707032 16.113282 33.191406 33.03125 24.519532l28.175782-14.449219c4.363281-2.234375 9.132812-3.339844 13.894531-3.316407 4.757813-26.046874 2.878906-53.945312.0625-71.949218-2.980469-19.039063 2.582031-38.40625 15.296875-52.886719 5.96875-6.796875 13.273438-17.488281 18.597656-25.636719zm0 0" fill="#eedb00"/><path d="m283.152344 77.425781 17.488281 36.367188c5.476563 11.386719 16.207031 19.351562 28.695313 21.296875l39.875 6.207031c23.941406 3.730469 33.214843 33.292969 15.695312 50.027344l-29.183594 27.875c-9.140625 8.726562-13.398437 21.394531-11.386718 33.871093l6.414062 39.839844c3.851562 23.921875-21.398438 41.878906-42.730469 30.386719l-35.523437-19.144531c-11.125-5.992188-24.488282-6.128906-35.734375-.363282l-35.910157 18.414063c-21.558593 11.058594-46.4375-7.410156-42.101562-31.246094l7.226562-39.703125c2.265626-12.433594-1.734374-25.183594-10.695312-34.097656l-28.609375-28.460938c-17.179687-17.089843-7.304687-46.457031 16.707031-49.695312l39.992188-5.398438c12.523437-1.6875 23.417968-9.433593 29.125-20.707031l18.226562-36.003906c10.945313-21.617187 41.929688-21.304687 52.429688.535156zm0 0" fill="#f9ee80"/><path d="m200.183594 195.109375c0-9.078125-9.242188-16.4375-20.640625-16.4375-11.402344 0-20.640625 7.359375-20.640625 16.4375s9.238281 16.4375 20.640625 16.4375c11.398437 0 20.640625-7.359375 20.640625-16.4375zm0 0" fill="#ff83b4"/><path d="m353.097656 195.109375c0-9.078125-9.238281-16.4375-20.640625-16.4375-11.398437 0-20.640625 7.359375-20.640625 16.4375s9.242188 16.4375 20.640625 16.4375c11.402344 0 20.640625-7.359375 20.640625-16.4375zm0 0" fill="#ff83b4"/><path d="m102.394531 14.359375 4.886719 8.933594c4.875 8.914062 12.199219 16.242187 21.113281 21.113281l8.933594 4.886719c9.144531 5.003906 9.144531 18.132812 0 23.136719l-8.933594 4.886718c-8.914062 4.871094-16.238281 12.199219-21.113281 21.113282l-4.886719 8.933593c-5.003906 9.144531-18.132812 9.144531-23.136719 0l-4.882812-8.933593c-4.875-8.914063-12.203125-16.242188-21.117188-21.113282l-8.933593-4.886718c-9.144531-5.003907-9.144531-18.132813 0-23.136719l8.933593-4.886719c8.914063-4.871094 16.242188-12.199219 21.117188-21.113281l4.882812-8.933594c5.003907-9.144531 18.132813-9.144531 23.136719 0zm0 0" fill="#b0f0ef"/><path d="m436.160156 65.632812 3.402344 6.21875c3.390625 6.203126 8.492188 11.304688 14.695312 14.699219l6.21875 3.402344c6.367188 3.480469 6.367188 12.621094 0 16.101563l-6.21875 3.402343c-6.203124 3.390625-11.304687 8.492188-14.695312 14.695313l-3.402344 6.21875c-3.480468 6.363281-12.621094 6.363281-16.105468 0l-3.398438-6.21875c-3.394531-6.203125-8.492188-11.304688-14.699219-14.695313l-6.21875-3.402343c-6.363281-3.480469-6.363281-12.621094 0-16.101563l6.21875-3.402344c6.207031-3.394531 11.304688-8.496093 14.699219-14.699219l3.398438-6.21875c3.484374-6.363281 12.625-6.363281 16.105468 0zm0 0" fill="#b0f0ef"/><path d="m317.808594 164.886719c-4.144532 0-7.5 3.359375-7.5 7.5v12.453125c0 4.140625 3.355468 7.5 7.5 7.5 4.140625 0 7.5-3.359375 7.5-7.5v-12.453125c0-4.140625-3.359375-7.5-7.5-7.5zm0 0"/><path d="m194.195312 164.886719c-4.144531 0-7.5 3.359375-7.5 7.5v12.453125c0 4.140625 3.355469 7.5 7.5 7.5 4.140626 0 7.5-3.359375 7.5-7.5v-12.453125c0-4.140625-3.359374-7.5-7.5-7.5zm0 0"/><path d="m271.507812 175.195312c-1.269531-.832031-6.882812-2.992187-10.386718 2.152344-1.679688 2.464844-4.128906 2.761719-5.121094 2.761719-.996094 0-3.484375-.269531-5.125-2.761719-2.273438-3.464844-6.921875-4.425781-10.382812-2.152344-3.464844 2.273438-4.425782 6.925782-2.152344 10.386719 3.917968 5.964844 10.519531 9.527344 17.660156 9.527344 7.136719 0 13.738281-3.5625 17.660156-9.527344 2.273438-3.460937 1.308594-8.113281-2.152344-10.386719zm0 0"/><path d="m40.726562 79.007812 8.933594 4.886719c7.667969 4.191407 13.9375 10.464844 18.132813 18.132813l4.886719 8.933594c3.628906 6.636718 10.582031 10.761718 18.148437 10.757812 7.5625 0 14.515625-4.121094 18.144531-10.757812l4.886719-8.933594c4.195313-7.667969 10.464844-13.9375 18.132813-18.132813l8.9375-4.886719c6.632812-3.628906 10.757812-10.582031 10.757812-18.148437 0-7.5625-4.125-14.515625-10.757812-18.144531-3.636719-1.988282-8.191407-.652344-10.179688 2.980468-1.988281 3.632813-.652344 8.191407 2.980469 10.179688 2.667969 1.460938 2.957031 3.972656 2.957031 4.984375 0 1.015625-.285156 3.527344-2.957031 4.988281l-8.933594 4.886719c-10.191406 5.574219-18.523437 13.90625-24.09375 24.09375l-4.890625 8.933594c-1.457031 2.667969-3.972656 2.957031-4.984375 2.957031s-3.527344-.289062-4.988281-2.957031l-4.882813-8.933594c-5.574219-10.1875-13.90625-18.523437-24.097656-24.097656l-8.933594-4.882813c-2.667969-1.460937-2.957031-3.976562-2.957031-4.988281s.289062-3.527344 2.957031-4.984375l8.933594-4.890625c10.191406-5.570313 18.523437-13.902344 24.097656-24.09375l4.882813-8.933594c1.460937-2.667969 3.976562-2.957031 4.988281-2.957031s3.527344.289062 4.988281 2.957031c0 0 6.710938 13.984375 11.589844 18.761719 2.960938 2.894531 7.390625 3.59375 10.566406.933594 3.175782-2.65625 3.734375-7.511719.9375-10.5625-4.011718-4.375-9.933594-16.332032-9.933594-16.332032-3.628906-6.632812-10.582031-10.757812-18.148437-10.757812-7.5625 0-14.519531 4.125-18.148437 10.757812l-4.886719 8.933594c-4.191407 7.667969-10.460938 13.941406-18.132813 18.136719l-8.933594 4.886719c-6.636718 3.628906-10.757812 10.582031-10.757812 18.144531-.003906 7.5625 4.121094 14.519531 10.757812 18.148437zm0 0"/><path d="m392.140625 112.636719 6.21875 3.398437c4.953125 2.710938 9.003906 6.761719 11.714844 11.714844l3.398437 6.222656c2.929688 5.351563 8.535156 8.671875 14.632813 8.671875 6.101562 0 11.707031-3.320312 14.632812-8.671875l3.402344-6.21875c2.710937-4.957031 6.761719-9.007812 11.714844-11.71875l6.21875-3.398437c5.351562-2.925781 8.675781-8.535157 8.675781-14.632813 0-6.101562-3.324219-11.707031-8.675781-14.632812l-6.21875-3.402344c-4.953125-2.707031-9.007813-6.757812-11.714844-11.714844l-3.402344-6.21875c-2.925781-5.351562-8.53125-8.675781-14.632812-8.675781-6.097657 0-11.703125 3.324219-14.628907 8.675781l-3.402343 6.21875c-2.710938 4.957032-6.761719 9.007813-11.714844 11.714844l-6.21875 3.402344c-5.351563 2.925781-8.675781 8.53125-8.675781 14.632812 0 6.097656 3.324218 11.707032 8.675781 14.632813zm13.414063-19.507813c7.480468-4.085937 13.589843-10.203125 17.679687-17.675781 0 0 4.421875-7.09375 4.871094-7.09375.453125 0 4.875 7.09375 4.875 7.09375 4.089843 7.476563 10.203125 13.589844 17.679687 17.675781 0 0 7.089844 4.421875 7.089844 4.875s-7.089844 4.871094-7.089844 4.871094c-7.476562 4.089844-13.589844 10.203125-17.679687 17.679688 0 0-4.417969 7.089843-4.875 7.089843-.453125 0-4.871094-7.089843-4.871094-7.089843-4.089844-7.476563-10.203125-13.589844-17.679687-17.679688 0 0-7.089844-4.417969-7.089844-4.871094s7.089844-4.875 7.089844-4.875zm0 0"/><path d="m510.582031 244.792969c-3.492187-11.132813-12.824219-19.167969-24.359375-20.964844l-31.285156-4.871094c-7.355469-1.144531-13.679688-5.835937-16.90625-12.550781l-13.726562-28.53125c-4.699219-9.773438-13.738282-16.015625-24.097657-17.085938-.144531-.535156-3.960937-23.777343-29.839843-26.902343l-39.875-6.207031c-10.050782-1.566407-18.683594-7.972657-23.089844-17.140626l-17.492188-36.367187c-6.105468-12.691406-18.644531-20.664063-32.730468-20.808594-14.109376-.183593-26.785157 7.574219-33.144532 20.140625l-18.230468 36.003906c-4.59375 9.074219-13.351563 15.300782-23.433594 16.664063l-39.992188 5.394531c-26.621094 3.863282-30.195312 25.648438-30.332031 26.125-9.761719 1.382813-18.253906 7.378906-22.816406 16.386719l-14.300781 28.246094c-3.363282 6.648437-9.777344 11.210937-17.160157 12.203125l-31.378906 4.234375c-11.566406 1.5625-21.0625 9.402343-24.78125 20.464843s-.890625 23.046876 7.386719 31.277344l22.445312 22.332032c5.28125 5.253906 7.636719 12.761718 6.300782 20.089843l-5.667969 31.152344c-2.089844 11.480469 2.433593 22.933594 11.804687 29.890625 9.371094 6.953125 21.644532 7.96875 32.03125 2.640625l28.171875-14.445313c6.628907-3.398437 14.5-3.316406 21.058594.214844l27.871094 15.015625c4.566406 2.460938 17.617187 7.976563 32.078125-1.988281 9.609375-6.621094 14.265625-18.125 12.410156-29.644531l-2.199219-13.671875c6.800781-1.316406 44.882813-21.628906 44.882813-21.628906 9.050781-4.640626 19.800781-4.53125 28.753906.292968l35.527344 19.140625c17.195312 9.328125 32.332031 2.136719 38.710937-2.398437 11.480469-8.164063 17.21875-21.875 14.980469-35.777344l-6.417969-39.84375c-1.617187-10.042969 1.808594-20.230469 9.164063-27.253906l29.183594-27.875c5.914062-5.644532 9.625-12.867188 10.890624-20.558594 3.765626 1.003906 7.542969 3.464844 9.8125 8.1875l13.722657 28.53125c5.371093 11.164062 15.882812 18.964844 28.121093 20.871094l31.285157 4.871094c5.9375.925781 10.554687 4.902343 12.355469 10.636718 1.796874 5.730469.277343 11.632813-4.066407 15.78125l-22.898437 21.871094c-8.957032 8.554688-13.128906 20.960938-11.160156 33.191406l5.035156 31.257813c.953125 5.933593-1.398438 11.554687-6.296875 15.035156-4.894531 3.480469-10.976563 3.859375-16.265625 1.007813l-27.875-15.015626c-10.902344-5.875-23.996094-6.007812-35.015625-.359374l-28.175781 14.449218c-5.941407 3.046875-11.089844 1.457032-13.632813.234375-4.410156-2.113281-7.613281-6.148437-8.5625-10.78125-.832031-4.058593-4.796875-6.671875-8.855469-5.84375-4.054687.832031-6.671875 4.796875-5.839844 8.855469 1.886719 9.199219 8.15625 17.160156 16.765626 21.292969 8.59375 4.121093 18.421874 3.972656 26.972656-.410157l28.171875-14.449218c6.628906-3.398438 14.5-3.316406 21.058593.214844l27.871094 15.015624c4.566406 2.460938 18.28125 7.996094 32.078125-1.988281 9.453125-6.84375 14.265625-18.125 12.410157-29.644531l-5.03125-31.257812c-1.1875-7.355469 1.324218-14.816407 6.710937-19.960938l22.894531-21.871094c8.4375-8.054687 11.511719-19.980468 8.015625-31.117187zm-334.183593 118.386719c-4.898438 3.484374-10.980469 3.859374-16.269532 1.011718l-27.875-15.019531c-10.902344-5.875-23.992187-6.007813-35.015625-.355469l-28.175781 14.445313c-5.347656 2.742187-11.417969 2.242187-16.242188-1.339844-4.824218-3.578125-7.0625-9.246094-5.988281-15.160156l5.671875-31.148438c2.214844-12.1875-1.703125-24.679687-10.484375-33.414062l-22.445312-22.328125c-4.261719-4.238282-5.660157-10.167969-3.746094-15.863282 1.914063-5.695312 6.613281-9.578124 12.570313-10.378906l31.378906-4.234375c12.273437-1.65625 22.941406-9.242187 28.535156-20.296875l14.304688-28.246094c1.820312-3.597656 4.753906-6.203124 8.308593-7.511718 1.125 7.675781 4.6875 14.933594 10.457031 20.671875l28.609376 28.460937c7.210937 7.175782 10.429687 17.429688 8.605468 27.4375l-7.226562 39.703125c-2.523438 13.855469 1.269531 37.246094 28.753906 42.582031l2.566406 15.953126c.957032 5.929687-1.398437 11.550781-6.292968 15.03125zm203.328124-177.277344-29.183593 27.871094c-10.925781 10.4375-16.015625 25.570312-13.613281 40.488281l6.414062 39.84375c1.347656 8.351562-1.964844 16.265625-8.859375 21.164062-6.894531 4.902344-15.457031 5.4375-22.90625 1.421875l-35.527344-19.140625c-6.792969-3.660156-14.277343-5.492187-21.769531-5.492187-7.179688 0-14.363281 1.683594-20.941406 5.058594l-35.910156 18.414062c-7.527344 3.859375-16.078126 3.152344-22.871094-1.886719-6.792969-5.042969-9.945313-13.023437-8.429688-21.34375l7.226563-39.703125c2.707031-14.867187-2.074219-30.101562-12.785157-40.757812l-28.609374-28.460938c-6-5.964844-7.96875-14.316406-5.273438-22.335937s9.3125-13.480469 17.695312-14.613281l39.992188-5.394532c14.972656-2.019531 27.988281-11.273437 34.8125-24.753906l18.226562-36.003906c3.820313-7.546875 11.132813-11.980469 19.613282-11.917969 8.460937.089844 15.699218 4.691406 19.363281 12.316406l17.492187 36.367188c6.546876 13.617187 19.371094 23.132812 34.300782 25.457031l39.875 6.207031c8.359375 1.304688 14.859375 6.898438 17.394531 14.972657 2.53125 8.070312.390625 16.378906-5.726563 22.222656zm0 0"/></svg>